<?xml version="1.0" encoding="UTF-8" standalone="no"?>
<svg
   viewBox="0 0 128 128"
   version="1.1"
   id="svg1"
   sodipodi:docname="favicon.svg"
   inkscape:version="1.3.2 (091e20e, 2023-11-25, custom)"
   xmlns:inkscape="http://www.inkscape.org/namespaces/inkscape"
   xmlns:sodipodi="http://sodipodi.sourceforge.net/DTD/sodipodi-0.dtd"
   xmlns="http://www.w3.org/2000/svg"
   xmlns:svg="http://www.w3.org/2000/svg">
  <defs
     id="defs1" />
  <sodipodi:namedview
     id="namedview1"
     pagecolor="#ffffff"
     bordercolor="#000000"
     borderopacity="0.25"
     inkscape:showpageshadow="2"
     inkscape:pageopacity="0.0"
     inkscape:pagecheckerboard="0"
     inkscape:deskcolor="#d1d1d1"
     showgrid="false"
     inkscape:zoom="6.3515625"
     inkscape:cx="64"
     inkscape:cy="63.842558"
     inkscape:window-width="1920"
     inkscape:window-height="1009"
     inkscape:window-x="-8"
     inkscape:window-y="-8"
     inkscape:window-maximized="1"
     inkscape:current-layer="svg1" />
  <rect
     x="1.0658141e-14"
     y="1.0658141e-14"
     width="128"
     height="128"
     fill="#0064ff"
     stroke="#000000"
     stroke-linecap="round"
     stroke-linejoin="bevel"
     stroke-width="1.35"
     id="rect1" />
  <path
     d="m 68.258247,110.35663 c 11.814208,0 21.52338,-4.32819 27.255626,-10.05985 V 62.981299 H 66.152249 v 11.11285 h 17.07824 v 20.237237 c -3.041366,2.690495 -8.305398,4.21113 -13.569527,4.21113 -17.78056,0 -27.255626,-12.516528 -27.255626,-32.987872 0,-20.237238 10.644636,-32.63623 26.67084,-32.63623 8.305399,0 13.569527,3.392333 17.897132,7.720516 L 94.2259,31.982661 C 88.961964,26.484714 80.773908,21.103917 68.608059,21.103917 c -22.810486,0 -40.122832,16.845097 -40.122832,44.919615 0,28.19109 16.845096,44.333868 39.772153,44.333868 z"
     fill="#ffffff"
     stroke="#000000"
     stroke-width="1.92681"
     id="path1" />
</svg>
