<svg viewBox="0 0 128 128" xmlns="http://www.w3.org/2000/svg"><path fill="#0064ff" stroke="#000" stroke-linecap="round" stroke-linejoin="bevel" stroke-width="1.35" d="M0 0h128v128H0z"/><path d="M68.258 110.357c11.814 0 21.524-4.329 27.256-10.06V62.98H66.152v11.113H83.23v20.237c-3.04 2.69-8.305 4.212-13.569 4.212-17.78 0-27.256-12.517-27.256-32.988 0-20.238 10.645-32.637 26.671-32.637 8.306 0 13.57 3.393 17.897 7.72l7.253-8.655c-5.264-5.498-13.452-10.88-25.618-10.88-22.81 0-40.123 16.846-40.123 44.92 0 28.192 16.845 44.334 39.772 44.334z" fill="#fff" stroke="#000" stroke-width="1.927"/></svg>